<?xml version="1.0" encoding="utf-8"?>
<!-- Generator: Adobe Illustrator 24.3.0, SVG Export Plug-In . SVG Version: 6.00 Build 0)  -->
<svg version="1.1" id="Capa_1" xmlns="http://www.w3.org/2000/svg" xmlns:xlink="http://www.w3.org/1999/xlink" x="0px" y="0px"
	 viewBox="0 0 1200 1200" enable-background="new 0 0 1200 1200" xml:space="preserve">
<g>
	<path fill="#E8E8E8" d="M644.006,1045.504c-18.895,5.979-37.79-10.045-45.204-18.625c-7.414-8.58-23.2-15.816-35.398-24.186
		c-12.198-8.371-28.462-19.134-41.855-21.526c-13.394-2.391-41.377,5.262-74.622,12.437c-33.245,7.175-60.272,0.479-60.272,0.479
		c-9.807,11.48-10.285,23.199-21.048,35.636c-10.763,12.437-37.072,24.635-44.965,11.481c-7.893-13.154,5.023-25.831,13.155-30.375
		c8.132-4.545,15.068-13.633,15.068-13.633c-22.004,9.806-61.468,8.849-81.797,9.328c-20.33,0.478-37.072-0.239-47.835,1.435
		c-10.763,1.674-22.722,18.895-30.375,22.004c-7.654,3.109-22.961,1.196-22.722-15.068c0.239-16.263,16.264-23.678,16.264-23.678
		c-27.984-5.501-70.556,16.981-82.515,22.243c-11.959,5.262-44.725,9.088-49.031-6.697c-4.305-15.785,8.371-25.592,21.765-25.592
		s36.115-3.108,55.967-10.045c19.851-6.936,37.789-25.591,56.206-43.051c8.018-7.601,16.091-14.932,24.914-22.306
		c-3.874-1.484-25.038-10.456-42.732-35.455c-19.552-27.625-15.005-44.313-9.866-46.281c8.431-3.229,16.668,11.481,24.119,22.781
		c7.452,11.301,37.549,33.742,55.327,38.217c0,0-9.223,6.466-17.465,13.112c1.414,2.739,9.944,17.164,31.477,15.221
		c23.857-2.153,33.185-17.4,32.288-33.903c0,0,22.195-4.39,15.585-26.867c6.299-2.026,12.452-3.676,18.428-5.075
		c6.968,0.665,22.264-4.295,22.533-4.384c0.005-0.001,0.011-0.001,0.016-0.003c-0.32,0.157-27.306,13.401-24.631,24.293
		c2.691,10.958,45.921-16.032,45.921-16.032s-39.822,28.425-33.185,39.905c6.637,11.481,47.895-30.608,47.895-30.608
		s-24.934,32.043-13.992,37.424c10.942,5.381,33.365-38.926,33.365-38.926s4.305,27.087,11.66,28.881
		c3.24,0.81,4.981-0.191,5.717-4.363c9.023,12.994,23.56,23.897,46.919,26.195c1.711,9.952,9.582,14.765,21.335,12.806
		c9.968-1.661,13.685-8.872,13.642-15.435c5.871-1.527,11.061-3.549,15.612-5.992c0.56,4.263,2.401,9.652,7.633,13.875
		c10.225,8.251,16.683,4.484,16.683,4.484s4.606,29.211,27.581,26.458c0.003,0,0.006-0.001,0.01-0.001
		c4.858,8.938,12.753,18.65,26.701,29.808c22.721,18.178,43.769,33.724,56.923,41.616
		C658.357,1025.414,662.901,1039.525,644.006,1045.504z M490.217,829.052c-24.396-3.588-16.742-42.812-16.742-42.812
		s-12.915,1.674-19.134-10.763c-3.45-6.9-3.731-14.528-3.301-19.96c-3.142,0.444-6.283,1.023-9.375,1.783
		c0,0-14.112-31.332-30.854-28.94c-16.742,2.392,0.956,47.596,3.109,53.336c2.153,5.74,3.109,15.786,1.435,27.983
		c-1.674,12.198-3.305,36.593,7.317,51.901c10.622,15.307,29.038,29.897,48.889,27.027c19.851-2.87,39.942-16.742,44.486-30.614
		c4.544-13.872,7.175-22.243,6.219-36.115c-0.059-0.862-0.157-1.703-0.237-2.556C514.965,825.016,503.911,831.066,490.217,829.052z
		 M762.517,471.726c-31.765-3.258-61.109-36.594-61.109-36.594s9.088,12.915,16.263,27.266c7.175,14.351,25.114,69.958,34.8,70.676
		c9.686,0.718,17.221-7.893,41.257-29.418c24.037-21.526,46.639-54.173,46.639-54.173S804.492,476.031,762.517,471.726z"/>
	<path fill="#8DB1EB" d="M1137.9,887.41c-18.656,30.136-88.973,88.973-127.719,106.672c-38.444,17.561-66.533,36.028-105.283-8.071
		c1.567-0.671,3.041-1.322,4.402-1.944c24.25-11.094,34.335-22.585,34.335-22.585s-16.687-22.227-68.768-30.51
		c0,0-5.082,5.889-14.41,11.091c-9.328,5.202-36.773,18.655-43.589,20.27c-4.68,1.108-15.702,3.57-22.151,5.004
		c1.98,1.859,3.737,4.914,3.316,9.885c0,0,13.274,1.435,13.633,14.529c0.359,13.095-17.221,15.248-17.221,15.248
		s0.247,5.068-4.012,8.308c-0.454,0.362-0.949,0.707-1.536,1.011c-1.863,0.962-5.079,2.16-8.879,3.368
		c-19.664,6.253-40.632,9.159-61.191,6.498c-9.763-1.264-19.91-4.579-25.962-12.844c-0.781-1.066-6.269-13.558-5.06-13.612
		c-15.747,0.707-49.478-1.269-80.395-26.213c-42.095-33.963-32.528-100.931-32.528-100.931s-8.132-19.134-3.827-31.093
		c4.305-11.958,16.742-42.094,16.742-57.402c0-15.307,26.309-75.579,15.307-98.061c0,0-30.136,6.697-64.099-8.61
		c-33.963-15.307-40.66-35.398-32.528-59.315c8.132-23.918,22.482-36.354,40.181-77.971c17.699-41.616,28.125-59.422,43.53-72.231
		c21.286-17.699,52.857-31.332,111.216-32.767c0,0,9.088,12.915,16.263,27.266c7.175,14.351,25.114,69.958,34.8,70.676
		c9.686,0.718,17.221-7.893,41.257-29.418c24.034-21.523,46.634-54.166,46.639-54.173c0,0,53.575,8.293,76.536,34.641
		c22.961,26.349,33.963,80.402,40.181,132.064c6.219,51.662,36.821,116.716-11.014,129.632l-13.587,3.719
		c1.35-3.737,2.591-7.488,3.683-11.202c5.85-19.065,6.162-25.983,6.162-25.983s-8.883-7.669-25.029-4.005
		c-16.147,3.664-31.846,6.987-60.129,25.996c0,0,0.059,8.784-23.081,20.085c-23.14,11.301-36.952,13.633-57.043,14.171
		c-20.091,0.538-58.299,3.408-74.622,0c-16.323-3.408-64.94-10.956-67.268-3.587c-3.229,10.225,22.243,14.889,22.243,14.889
		s-58.478,27.445-52.738,39.284c4.763,9.824,34.95-8.748,45.094-15.359c-9.851,6.679-37.871,26.686-32.207,34.552
		c5.319,7.387,33.462-11.484,45.753-20.27c-9.135,6.997-25.583,21.02-22.046,28.88c4.843,10.763,52.02-24.866,52.02-24.866
		s-26.548,23.073-20.629,30.248c5.92,7.175,38.029-16.324,43.948-19.911c5.92-3.588,11.6-10.823,19.732-12.019
		c8.132-1.196,55.727,4.558,80.362,1.681c24.635-2.877,62.664-7.183,79.406-17.228c6.554-3.933,12.882-10.841,18.647-19.396
		c32.321-13.453,102.855-37.076,165.277-18.633C1164.209,791.741,1156.556,857.274,1137.9,887.41z M458.726,906.537
		c-0.288-8.914,5.632-15.271,11.521-17.81c-19.346,2.057-37.189-12.179-47.575-27.147c-2.606-3.755-4.466-8.061-5.778-12.596
		c-2.325,8.72-4.522,18.689-4.349,24.734c0.127,4.456,0.023,7.695-0.382,9.988c9.023,12.994,23.56,23.897,46.919,26.195
		C458.899,908.832,458.764,907.722,458.726,906.537z M534.225,860.688c-4.475-8.845-9.374-17.731-12.564-23.404
		c-1.023,6.479-2.982,12.675-5.613,20.707c-4.147,12.66-21.246,25.291-39.29,29.589c9.126,1.007,13.548,6.809,16.288,14.026
		c0.647,1.705,0.999,3.651,1.013,5.654c25.301-6.533,37.602-22.539,43.091-39.836C536.145,864.827,535.164,862.544,534.225,860.688z
		"/>
	<path fill="#91655A" d="M522.03,819.321c-7.065,5.695-18.119,11.745-31.812,9.731c-24.396-3.588-16.742-42.812-16.742-42.812
		s-12.915,1.674-19.134-10.763c-3.45-6.9-3.731-14.528-3.301-19.96c25.535-3.609,51.135,2.261,51.135,2.261
		s12.198-28.462,27.983-23.439c15.786,5.023-8.849,46.161-10.763,53.575C517.602,794.867,520.829,806.466,522.03,819.321z
		 M517.304,915.155c10.225,8.251,16.683,4.484,16.683,4.484s4.606,29.21,27.581,26.458c0.003,0,0.006-0.001,0.01-0.001
		c-3.056-5.623-4.919-10.941-6.305-16.112c-3.133-11.698-11.193-44.641-18.124-62.559c-4.213,13.278-12.453,25.789-27.479,33.855
		C510.23,905.543,512.072,910.932,517.304,915.155z M250.566,913.361c23.857-2.153,33.185-17.4,32.288-33.903
		c0,0,22.195-4.39,15.585-26.867c-15.769,5.072-32.388,12.409-49.069,23.578c-11.418,7.645-21.297,14.876-30.281,21.971
		C219.119,898.209,226.756,915.509,250.566,913.361z M599.281,345.101c10.045,8.029,2.392,19.715,4.066,34.783
		c1.674,15.068,8.61,19.134,20.569,22.243c11.959,3.109,11.959,9.567,15.307,25.113c2.859,13.276,14.68,12.486,18.08,11.972
		c12.75-2.239,27.313-3.667,44.105-4.079c0,0,11.48-1.913,10.523-13.633c-0.957-11.719-24.874-27.983-25.831-58.836
		c0,0-27.266,0-26.309-27.027c0.957-27.026,26.086-21.287,26.086-21.287s10.465,1.637,7.655-19.79c0,0,19.355-0.3,24.378-12.976
		c5.022-12.677,8.371-17.221,17.699-17.699c7.662-0.393,21.295,4.701,29.234-1.554c1.74-1.371,4.383-0.332,4.844,1.835
		c1.068,5.024,3.843,11.024,10.887,13.112c12.915,3.827,20.808,0,23.439,6.935c2.631,6.937,0.709,19.433,12.198,24.874
		c4.544,2.153,9.089,0.718,9.089,0.718s24.33-1.65,22.961,26.549c-1.196,24.635-26.309,23.918-26.309,23.918
		s2.152,19.851-2.392,33.723c-4.544,13.872-13.872,19.851-9.806,33.245c4.066,13.394,30.614,22.243,30.614,22.243
		s4.549,0.709,11.54,2.351c0.002,0,0.004,0.001,0.006,0.001c30.221,2.929,26.243-23.16,37.963-26.747s18.656-7.175,21.765-16.832
		c3.109-9.656,2.631-16.653,11.72-28.372c9.089-11.719,18.177-31.332,4.066-47.835c-14.111-16.503-2.152-21.047-4.783-35.766
		c-2.631-14.719-7.654-12.547-15.785-22.593c-8.132-10.045,4.305-22.482-3.349-36.593c-7.654-14.111-21.286-12.437-30.853-23.439
		c-9.567-11.002-6.458-22.722-19.134-29.179c-12.676-6.458-25.831-2.87-32.049-10.763c-6.219-7.893-13.155-12.198-20.445-12.436
		c-7.29-0.239-13.757-7.654-24.281-8.132c-10.524-0.478-15.785,7.893-25.269,10.523c-9.483,2.631-11.564-6.697-31.654-4.066
		c-20.091,2.631-22.004,19.372-29.658,25.113c-7.654,5.74-17.699-2.631-31.918,0c-14.219,2.631-13.286,9.806-24.288,25.353
		c-11.002,15.546-17.938,0.239-33.484,16.981c-15.546,16.742-2.87,33.484-1.913,48.552s-18.895,20.33-19.852,37.79
		C577.755,330.853,589.235,337.072,599.281,345.101z"/>
	<path fill="#EBB38D" d="M936.167,738.337c-1.092,3.713-2.333,7.464-3.683,11.202c-4.67,12.923-10.789,25.645-17.741,35.962
		c-5.765,8.554-12.094,15.463-18.647,19.396c-16.742,10.045-54.771,14.35-79.406,17.228c-24.635,2.877-72.23-2.877-80.362-1.681
		c-8.132,1.195-13.812,8.431-19.732,12.019c-5.92,3.587-38.029,27.086-43.948,19.911c-5.92-7.175,20.629-30.248,20.629-30.248
		s-47.177,35.629-52.02,24.866c-3.537-7.86,12.911-21.883,22.046-28.88c-12.291,8.786-40.434,27.657-45.753,20.27
		c-5.663-7.866,22.357-27.873,32.207-34.552c-10.145,6.611-40.331,25.182-45.094,15.359c-5.74-11.839,52.738-39.284,52.738-39.284
		s-25.472-4.664-22.243-14.889c2.327-7.369,50.944,0.18,67.268,3.587c16.324,3.408,54.532,0.538,74.622,0
		c20.091-0.538,33.903-2.87,57.043-14.171c23.14-11.301,23.081-20.085,23.081-20.085c28.283-19.009,43.982-22.332,60.129-25.996
		c16.146-3.663,25.029,4.005,25.029,4.005S942.017,719.271,936.167,738.337z M809.754,427.24
		c-4.066-13.394,5.262-19.373,9.806-33.245c4.544-13.872,2.392-33.723,2.392-33.723s25.113,0.717,26.309-23.918
		c1.369-28.198-22.961-26.548-22.961-26.548s-4.544,1.435-9.089-0.718c-11.489-5.442-9.567-17.938-12.198-24.874
		c-2.631-6.936-10.523-3.109-23.439-6.936c-7.044-2.087-9.82-8.088-10.887-13.112c-0.461-2.167-3.103-3.206-4.844-1.835
		c-7.939,6.255-21.572,1.161-29.234,1.554c-9.328,0.478-12.677,5.022-17.699,17.699c-5.023,12.676-24.378,12.977-24.378,12.977
		c2.81,21.427-7.655,19.79-7.655,19.79s-25.129-5.74-26.086,21.286c-0.957,27.027,26.309,27.027,26.309,27.027
		c0.957,30.853,24.874,47.117,25.831,58.836c0.956,11.72-10.523,13.633-10.523,13.633s29.343,33.336,61.109,36.594
		c41.975,4.305,77.851-22.243,77.851-22.243S813.82,440.634,809.754,427.24z M416.895,848.983
		c-4.033-13.951-2.802-30.099-1.539-39.305c0.56-4.078,0.803-7.886,0.828-11.403c-2.852,1.81-5.678,3.376-8.482,4.586
		c-17.041,7.355-62.066,19.626-75.519,26.585c-13.454,6.959-20.091,10.905-18.656,16.286c1.435,5.382,25.902-2.611,25.902-2.611
		s-27.337,13.343-24.646,24.301c2.691,10.957,45.921-16.032,45.921-16.032s-39.822,28.425-33.185,39.905
		c6.637,11.481,47.895-30.608,47.895-30.608s-24.934,32.043-13.992,37.424c10.942,5.382,33.365-38.926,33.365-38.926
		s4.305,27.086,11.66,28.881c5.023,1.256,6.458-1.794,6.099-14.351C412.373,867.673,414.57,857.703,416.895,848.983z
		 M476.477,887.532c-6.866-0.672-18.146,6.779-17.751,19.005c0.394,12.226,8.676,18.339,21.691,16.17
		c13.015-2.169,15.398-13.803,12.629-21.099C490.277,894.311,485.806,888.445,476.477,887.532z M539.009,677.416
		c-2.26-1.019-4.391-2.06-6.414-3.121c-1.867,5.71-4.957,13.632-10.133,24.168c-10.576,21.53-31,41.752-49.491,55.953
		c16.459,0.456,29.205,3.362,29.205,3.362s12.198-28.462,27.983-23.439c15.786,5.023-8.849,46.16-10.763,53.575
		c-0.073,0.282-0.089,0.616-0.146,0.912c10.424-6.664,30.673-20.724,46.785-38.702c19.814-22.108,30.034-42.942,30.401-63.138
		C585.709,688.055,563.343,688.383,539.009,677.416z M874.869,930.971c0,0-5.082,5.889-14.41,11.091
		c-9.328,5.202-36.773,18.655-43.589,20.27c-4.68,1.108-15.702,3.57-22.151,5.004c1.98,1.859,3.737,4.914,3.316,9.885
		c0,0,13.274,1.435,13.633,14.529c0.359,13.095-17.221,15.248-17.221,15.248s0.186,4.24-3.034,7.446
		c3.146,1.175,7.252,2.42,10.568,2.42c6.278,0,12.444-4.305,24.698-5.382c11.476-1.008,55.136-15.579,78.22-25.471
		c1.567-0.671,3.041-1.322,4.402-1.944c24.25-11.094,34.335-22.585,34.335-22.585S926.949,939.254,874.869,930.971z"/>
	<path fill="#102A38" d="M641.768,679.136c-27.914-12.452-23.6-50.212-20.447-75.434c6.163-33.128,0.566-80.032,35.537-97.984
		c-1.517-24.731,0.745-53.16,16.464-73.274c3.502-3.456,8.682,0.933,6.576,5.073c-12.516,19.822-15.252,43.612-14.929,66.627
		c28.945,1.377,32.581,37.862,39.703,59.631c5.408,25.58,33.273,101.825,3.313,115.445c-1.356,8.281-16.62,7.594-15.923-1.77
		c0.149-7.953,8.326-10.892,12.793-6.656c17.204-9.73,1.407-57.869-1.338-74.58c-6.446-19.359-13.977-75.057-32.796-81.99
		c-28.664-6.187-34.91,39.985-36.655,60.103c-1.295,28.111-18.908,78.82,10.146,96.773c9.213-8.935,20.863,10.711,7.216,13.699
		C646.151,685.678,642.605,683.547,641.768,679.136z M718.454,345.099c14.14-0.457,13.818-21.497-0.328-21.52
		C703.986,324.035,704.309,345.075,718.454,345.099z M437.71,795.21c-12.808,0.252-12.511,19.728,0.299,19.589
		C450.816,814.547,450.519,795.07,437.71,795.21z M495.47,794.014c-12.808,0.252-12.511,19.729,0.299,19.589
		C508.577,813.351,508.279,793.875,495.47,794.014z M790.431,344.004c14.14-0.457,13.818-21.497-0.328-21.52
		C775.963,322.94,776.286,343.979,790.431,344.004z M752.318,408.247c16.894-0.431,23.877-17.103,20.83-21.539
		c-3.047-4.436-12.926,0.746-22.106-0.332c-11.307-1.329-19.838-2.787-20.754,2.624
		C729.425,394.092,735.423,408.677,752.318,408.247z M487.063,860.235c-4.71,2.006-13.513,4.673-15.472-2.103
		c-0.208-0.64-2.068-6.857-1.086-7.022c5.627-0.947,12.122-4.229,12.222-8.091c0.12-4.664-10.377-6.842-16.264-6.458
		c-20.694,0.111-20.079,11.994-3.759,14.384c0.367,0.073-0.265,3.973-0.319,4.374c0.069,7.03-7.276,7.794-12.228,4.939
		c-1.431-0.806-3.323-0.342-4.162,1.091c-0.917,1.569-0.216,3.159,1.091,4.162c5.592,4.293,14.23,4.692,19.211-0.493
		c5.702,7.156,16.334,5.443,23.145,0.864c1.331-0.745,1.867-2.488,1.265-3.858C490.153,860.76,488.503,859.634,487.063,860.235z
		 M756.437,366.164c5.023-2.101,9.841-8.93,7.069-14.283c-1.615-2.425-5.325-2.72-6.875,0c-0.977,1.86-0.508,3.458-1.522,4.908
		c-1.794,3.307-7.146,2.345-7.933-1.482c-0.345-9.249,1.597-18.616,1.637-27.937c0.181-3.886-6.318-4.903-6.913-0.936
		c-0.951,6.338-1.749,12.671-2.461,19.043C736.598,357.46,742.325,370.701,756.437,366.164z M587.184,666.355
		c3.488,7.23,7.161,15.057,13.015,20.672c3.494,2.914,8.42-0.661,6.321-4.878c-8.887-12.746-16.151-26.999-17.884-42.725
		c-2.673-17.12,3.502-34.521-0.26-51.5c-1.008-4.042-7.492-3.252-7.331,0.992C581.164,614.908,574.963,641.949,587.184,666.355z
		 M585.512,553.694c1.647-0.247,3.266-1.724,3.122-3.536c-0.487-6.041-0.78-12.289,0.183-18.28c0.372-2.296,1.269-4.777,1.164-7.106
		c-0.168-3.752-5.069-5.205-7.093-1.921C580.256,527.524,577.205,554.414,585.512,553.694z M591.376,494.517
		c4.709-0.83,2.949-6.583,3.275-9.972c0.152-4.121,0.968-7.427,2.254-11.231c0.731-2.096,2.022-4.251,2.04-6.505
		c0.021-2.642-3.274-4.93-5.634-3.233C587.794,466.784,581.73,494.804,591.376,494.517z M903.164,498.706
		c1.7-2.106,3.512-4.131,5.643-5.813c-0.045,0.031-0.077,0.053-0.132,0.09c2.786-2.779,7.319-2.892,9.731-5.92
		c1.023-1.673,0.524-4.603-1.429-5.447c-5.566-3.252-25.354,11.512-18.813,17.388C899.553,500.075,901.944,500.163,903.164,498.706z
		 M908.808,492.892C909.595,492.358,909.023,492.717,908.808,492.892L908.808,492.892z M876.108,530.003
		c4.908,1.16,5.178-4.863,6.558-8.045c-0.017,0.033-0.03,0.066-0.049,0.098c0.049-0.089,0.206-0.498,0.191-0.428
		c1.306-3.037,3.276-5.674,5.388-8.188c-0.031,0.05,0.481-0.626,0.2-0.262c2.329-2.438,1.083-6.991-2.556-6.946
		C879.426,506.3,867.953,526.996,876.108,530.003z M882.687,521.902c-0.007,0.018-0.014,0.037-0.021,0.056
		c0.083-0.165,0.138-0.302,0.142-0.33C882.769,521.72,882.726,521.811,882.687,521.902z M772.014,624.332
		c-21.205,7.811-17.101,43.502,10.408,37.78c24.384-5.117,16.146-35.166-2.521-38.447c3.552-82.98,78.583-74.857,61.843-179.561
		c-0.665-4.944-8.933-3.764-8.699,1.178c0.647,13.657,2.373,27.111,1.126,40.81C829.453,542.081,768.097,557.743,772.014,624.332z
		 M602.712,821.107c-22.614,11.976-26.661,24.895-32.073,49.896c-0.461,3.666,5.449,5.135,6.979,1.891
		c6.31-16.619,7.154-25.105,14.593-33.526c4.103-4.644,9.863-7.4,14.465-11.45C609.434,825.162,606.664,819.738,602.712,821.107z
		 M906.125,933.414c-1.826-0.631-3.729-1.233-5.661-1.812c0.289-0.397,0.6-0.778,0.896-1.169c-0.217,0.28-0.433,0.561-0.65,0.841
		c1.551-2.451,4.807-4.084,4.862-7.245c-0.048,0.355-0.095,0.709-0.143,1.064c1.074-2.963-1.974-5.89-4.92-4.92
		c0.022-0.003,0.043-0.006,0.065-0.008c-3.922,1.466-6.247,5.871-8.338,9.306c-4.292-0.931-8.657-1.554-12.947-1.696
		c25.838-28.641,58.569-50.924,92.089-69.719c10.188-5.543,20.898-9.993,31.138-15.383c4.26-2.243,1.328-9.559-3.327-7.891
		c-3.127,1.121-6.217,2.423-9.279,3.818c5.351-8.603,14.339-14.045,21.142-21.045c2.136-7.152-5.585-6.639-9.331-2.878
		c-10.709,8.102-20.271,18.481-25.729,30.879c-2.274,1.218-4.54,2.382-6.773,3.631c-8.087-4.94-19.233-3.722-27.523,0.274
		c-3.869,1.893-1.149,8.524,2.962,7.026c4.585-1.692,9.56-2.242,14.409-1.644c-31.134,18.369-61.336,39.415-85.807,66.267
		c-28.268-42.693-65.136-75.469-110.497-99.196c-4.484-2.237-8.316,4.141-3.956,6.768c44.755,25.726,80.827,58.007,109.664,100.852
		c-1.055,2.238-0.262,5.706,2.426,6.24c11.069,1.354,22.236,2.612,32.764,6.577c20.198,7.397,39.678,20.653,50.486,39.63
		c4.602,8.635,6.839,22.486-4.32,26.83c-4.103,1.597-3.628,7.573,1.058,7.82c10.287,0.542,15.592-12.075,15.923-20.522
		C965.237,964.944,932.864,943.306,906.125,933.414z M268.834,977.912c-6.558-2.167-13.969-2.01-20.293-5.157
		c-0.838-1.265-2.185-2.156-3.779-2.019c-5.374-3.472-9.275-8.504-13.987-12.879c-2.848-2.644-7.186,0.677-5.352,4.129
		c1.996,3.756,4.544,7.329,7.554,10.438c-18.454,0.583-37.916,4.918-52.86,16.213c-2.739,2.154,0.238,7.297,3.473,5.967
		c10.236-4.208,20.072-8.784,30.979-11.081c9.542-2.485,19.7-1.287,29.208-3.267c7.464,3.375,15.808,5.448,23.974,5.659
		C272.451,985.42,273.127,979.691,268.834,977.912z M359.724,933.586c0.862-4.508-5.059-5.983-6.752-1.862
		c-7.092,17.727,2.192,37.038-2.407,55.15c-0.692,2.707-2.047,5.255-2.592,7.976c-0.72,3.595,3.425,6.295,6.237,3.631
		C367.953,979.706,354.873,954.703,359.724,933.586z M408.75,969.554c-9.635,5.326-17.639,13.916-23.694,23.059
		c-2.223,3.363,2.907,7.373,5.617,4.334c6.841-7.916,15.013-14.467,22.679-21.407C415.285,972.645,412.043,968.457,408.75,969.554z
		 M843.037,704.168c-0.175,6.008,4.932,42.999,15.137,34.314c24.37-16.1,71.665-42.779,94.243-12.004
		c1.644,2.723,3.902,6.732,2.01,9.787c-2.396,3.866,3.504,8.687,6.448,4.975c5.164-6.51,2.354-15.082-2.031-21.262
		c-25.502-32.899-74.87-10.029-101.954,9.632c-11.867-36.251-1.843-80.229,7.07-116.475c3.29-11.67,7.29-23.124,11.263-34.573
		c1.39-4.005-5.113-6.832-6.923-2.918c-1.813,3.92-3.467,7.916-5.041,11.945c-0.233-10.15,0.844-20.424,3.645-30.204
		c1.34-4.615-5.327-6.179-7.029-1.938c-5.905,15.883-6.451,33.891-2.943,50.416C847.819,637.646,841.779,671.019,843.037,704.168z
		 M744.657,970.966c-3.136-2.788-7.67-0.061-6.862,3.994c4.01,11.218,5.816,24.259-0.393,35.057
		c-1.756,3.741,2.741,7.825,5.969,4.605C752.897,1004.622,752.151,981.801,744.657,970.966z M764.564,977.438
		c2.11,9.514,5.054,19.281,2.369,29.016c-0.787,2.982-2.125,5.671-3.305,8.503c-1.5,3.597,3.782,6.029,6.216,3.619
		c10.237-11.653,7.815-29.853,3.299-43.502C771.227,969.693,763.386,971.795,764.564,977.438z M781.19,958.372
		c-35.233-6.459-67.315-41.618-91.406,6.298c-11.505-4.628-22.576-10.096-30.859-19.53c-1.32-1.47-3.828-1.343-5.172,0
		c-3.497,4.302,3.267,8.23,5.618,11.268c-4.022,0.604-11.35-2.235-12.604,3.225c-0.235,1.754,0.86,3.751,2.704,4.143
		c6.499,1.198,13.453,1.675,19.987,0.681c5.315,3.555,11.564,5.333,17.12,8.41c-2.799,9.473-6.545,19.898-3.888,29.794
		c1.195,4,7.008,3.151,7.184-0.972c1.135-29.034,16.454-66.468,51.434-48.084c9.412,3.944,18.462,8.874,28.325,11.666
		c8.149,2.307,24.075,1.029,26.216,11.843c0.909,4.589,8.111,3.472,8.064-1.092C803.788,963.833,791.076,959.873,781.19,958.372z
		 M933.315,893.44c-5.773-2.693-12.882,8.887-16.257,12.785c-2.242,3.589,2.921,7.594,5.881,4.538
		c3.841-3.462,7.432-7.203,11.228-10.711C936.067,898.223,935.704,894.692,933.315,893.44z M970.877,866.867
		c-4.117,0.249-7.218,3.576-10.56,5.671c-3.307,3.015-12.337,7.191-8.386,12.518c4.997,3.856,12.286-6.28,17.144-8.235
		c1.828-1.192,4.039-2.222,5.083-4.235C975.479,870.037,973.856,866.909,970.877,866.867z M1014.774,844.704
		c-4.17-0.95-7.582,3.369-11.116,5.018c-3.306,2.804-12.192,5.457-8.957,11.007c4.17,4.083,9.529-2.111,13.518-3.842
		C1012.268,854.449,1022.937,849.119,1014.774,844.704z M881.715,867.12c-6.731-2.093-18.698,5.553-20.559,12.114
		c-0.133,3.22,4.325,5.163,6.531,2.706c3.284-3.852,8.077-6.127,13.007-7.009C884.255,874.167,884.935,868.8,881.715,867.12z
		 M923.494,852.283c-4.573-1.406-27.058,7.062-23.156,13.468c3.835,4.935,9.366-2.112,13.838-2.883
		c3.529-1.754,7.947-1.476,11.086-3.89C927.469,856.889,926.341,853.094,923.494,852.283z"/>
</g>
</svg>
